<?xml version="1.0" encoding="UTF-8"?>
<svg version="1.1" xmlns="http://www.w3.org/2000/svg" width="1024" height="1024">
<path d="M0 0 C337.92 0 675.84 0 1024 0 C1024 337.92 1024 675.84 1024 1024 C686.08 1024 348.16 1024 0 1024 C0 686.08 0 348.16 0 0 Z " fill="#FEFEFE" transform="translate(0,0)"/>
<path d="M0 0 C6.2749864 3.17422452 12.167171 6.74663329 18.05053711 10.59204102 C34.88981133 21.44478377 52.15518409 31.6049657 69.80053711 41.09204102 C70.75959961 41.60847168 71.71866211 42.12490234 72.70678711 42.65698242 C145.32271512 81.54054262 229.24157738 111.4630049 312.28955078 112.57543945 C321.39612741 112.78318892 330.73506468 113.82946318 337.80053711 120.09204102 C346.12979742 128.98775033 344.62490279 140.49805656 344.52929688 151.83276367 C344.53251913 154.04830428 344.53834082 156.26384239 344.54655457 158.47937012 C344.56106767 164.48511812 344.53815866 170.49019463 344.50769544 176.49586153 C344.48122397 182.8149713 344.48662929 189.13406262 344.48777771 195.45321655 C344.4849687 206.08734599 344.45912151 216.72119431 344.41796875 227.35522461 C344.37593169 238.22376165 344.35444725 249.09207377 344.35644531 259.96069336 C344.35656518 260.62698221 344.35668505 261.29327105 344.35680855 261.97975047 C344.35692961 262.64503034 344.35705068 263.31031021 344.35717541 263.99575007 C344.35937262 277.07807979 344.33826094 290.16031886 344.3108356 303.24261808 C344.30450778 306.96817285 344.30232102 310.69370994 344.30111885 314.41926956 C344.25609027 386.13769508 333.03410129 450.65798714 299.80053711 515.09204102 C299.46086914 515.7573584 299.12120117 516.42267578 298.77124023 517.1081543 C281.57808287 550.7180555 260.06476956 582.20216083 235.80053711 611.09204102 C235.28168945 611.70998535 234.7628418 612.32792969 234.22827148 612.96459961 C222.85396213 626.43883593 210.73525196 639.22077542 198.30053711 651.71704102 C197.66656006 652.35569092 197.03258301 652.99434082 196.37939453 653.65234375 C192.62654984 657.39238177 188.75150631 660.93213035 184.74243164 664.39526367 C181.75140803 667.00874294 178.87699774 669.74198417 175.98803711 672.46704102 C170.99988574 677.13438735 165.9045483 681.58148959 160.57006836 685.85375977 C158.03264737 687.90445402 155.54651841 690.00059859 153.0690918 692.12255859 C146.72094695 697.55695532 140.22256194 702.74026359 133.55004883 707.7722168 C131.70428741 709.16465138 129.86378419 710.56387433 128.02319336 711.96313477 C99.6082832 733.49578498 69.86875752 753.31753586 38.67553711 770.59204102 C38.06392731 770.93178955 37.4523175 771.27153809 36.82217407 771.62158203 C18.7636294 781.62730027 2.37785332 789.48450272 -18.66040039 785.42407227 C-22.32261522 784.24402527 -25.74731437 782.77275401 -29.19946289 781.09204102 C-30.5254248 780.4469458 -30.5254248 780.4469458 -31.87817383 779.78881836 C-61.77789278 765.02577068 -90.44393626 747.37618643 -117.23413086 727.53540039 C-119.70237723 725.72269573 -122.20246351 723.9580008 -124.70654297 722.1953125 C-131.81276731 717.18741018 -138.65633623 711.89152508 -145.45385742 706.47436523 C-147.18125439 705.10646011 -148.92023049 703.75500197 -150.66430664 702.40844727 C-162.13242365 693.53630666 -173.03446543 684.04325417 -183.75805664 674.28735352 C-185.80982214 672.44240597 -187.88189893 670.62772221 -189.96508789 668.81860352 C-194.23722656 665.08651733 -198.38743314 661.23600699 -202.51196289 657.34204102 C-203.2510791 656.6446582 -203.99019531 655.94727539 -204.75170898 655.22875977 C-212.54032006 647.85597125 -220.29985506 640.47566386 -227.26586914 632.30688477 C-229.29813332 629.97901852 -231.39273793 627.72105409 -233.50219727 625.46337891 C-239.34294615 619.20815452 -244.84304334 612.77006082 -250.19946289 606.09204102 C-251.18222939 604.8993076 -252.1667122 603.70798701 -253.15258789 602.51782227 C-264.62344667 588.62658768 -275.43057488 574.2348589 -285.19946289 559.09204102 C-285.8555957 558.10333008 -286.51172852 557.11461914 -287.18774414 556.09594727 C-297.5133253 540.37161617 -307.18804965 524.07469101 -315.25317383 507.07006836 C-316.26846877 504.94779808 -317.3145478 502.84238322 -318.36352539 500.73657227 C-324.55076338 488.18428673 -329.57510736 475.29379666 -334.19946289 462.09204102 C-334.7237085 460.59543945 -334.7237085 460.59543945 -335.25854492 459.06860352 C-341.14557432 442.01919069 -345.46731681 424.71827463 -349.19946289 407.09204102 C-349.46799072 405.83979736 -349.46799072 405.83979736 -349.74194336 404.56225586 C-356.42908484 372.46541638 -355.66746008 339.06550114 -355.63537097 306.47405386 C-355.6322367 301.54468539 -355.63841555 296.61534445 -355.64440972 291.68597996 C-355.65832741 280.06935615 -355.6569924 268.45280614 -355.64550781 256.83618164 C-355.63394912 244.8806073 -355.64826022 232.92532886 -355.67490429 220.96979606 C-355.69704668 210.64463891 -355.70370459 200.31955169 -355.69782788 189.99437249 C-355.69446447 183.8521088 -355.69683676 177.7099887 -355.7140789 171.56774521 C-355.72952993 165.81679871 -355.72561294 160.06618556 -355.70677376 154.3152523 C-355.70308751 152.2093595 -355.70619736 150.10344199 -355.71665955 147.99757195 C-355.72986356 145.12038259 -355.71832854 142.24429906 -355.70066833 139.36715698 C-355.71027334 138.53818842 -355.71987835 137.70921985 -355.72977442 136.85513103 C-355.63877238 129.6344844 -353.51083642 124.40341455 -348.38696289 119.27954102 C-341.91000721 114.83457143 -335.69739288 113.03293939 -327.93774414 112.88110352 C-232.54659751 110.44596867 -138.87919568 75.82521334 -57.19946289 28.09204102 C-56.35222656 27.59881348 -55.50499023 27.10558594 -54.63208008 26.59741211 C-43.45937952 20.06946865 -32.56473148 13.17102989 -21.79907227 5.9909668 C-20.88061523 5.38236816 -19.9621582 4.77376953 -19.01586914 4.14672852 C-18.20577393 3.60516113 -17.39567871 3.06359375 -16.56103516 2.50561523 C-11.21461958 -0.69460664 -6.07041694 -2.50592525 0 0 Z " fill="#006FE4" transform="translate(517.199462890625,122.907958984375)"/>
<path d="M0 0 C2.47776416 2.18486552 4.87494436 4.43089256 7.2578125 6.71875 C8.20011719 7.59789062 9.14242188 8.47703125 10.11328125 9.3828125 C36.27954747 34.23543406 53.46678879 70.33036725 55.46484375 106.46264648 C55.56023742 110.30050258 55.58708501 114.12976257 55.5703125 117.96875 C55.56815735 118.64572937 55.5660022 119.32270874 55.56378174 120.02020264 C55.50865197 130.85399902 54.89426744 141.19407826 52.2578125 151.71875 C52.05381836 152.54487793 51.84982422 153.37100586 51.63964844 154.22216797 C44.8857904 180.88860161 32.74945969 205.47954445 17.72167969 228.46386719 C15.99631279 231.12155375 14.30254195 233.79824864 12.609375 236.4765625 C-0.07448304 256.50182074 -13.45815575 276.00956956 -27.10302734 295.38867188 C-28.66991286 297.61601107 -30.23202939 299.84661624 -31.79296875 302.078125 C-38.69711183 311.92964415 -45.78893759 321.63323735 -52.95117188 331.29833984 C-55.3408157 334.52774673 -57.71973027 337.76498883 -60.09912109 341.00195312 C-66.46610236 349.66006297 -72.86754934 358.29103618 -79.34716797 366.86523438 C-80.72854527 368.70062402 -82.09737238 370.54486082 -83.46484375 372.390625 C-94.65683714 387.38681398 -94.65683714 387.38681398 -101.7421875 388.71875 C-105.69187158 389.08446149 -108.09374416 389.03607334 -111.6796875 387.28125 C-121.04006109 379.44910067 -127.76629369 369.06453732 -134.89111328 359.25927734 C-137.26449306 356.00190594 -139.65987043 352.76111113 -142.05639648 349.52075195 C-148.8174896 340.37661192 -155.49440083 331.17378659 -162.13769531 321.94384766 C-163.73857213 319.72376377 -165.34494181 317.50776451 -166.953125 315.29296875 C-170.23002361 310.77815278 -173.49119534 306.25225267 -176.7421875 301.71875 C-177.24169922 301.02313965 -177.74121094 300.3275293 -178.25585938 299.61083984 C-187.05960146 287.30678027 -195.46639093 274.73694201 -203.8671875 262.15625 C-204.41418304 261.3383902 -204.96117859 260.5205304 -205.52474976 259.67788696 C-215.73902109 244.39447935 -225.95156297 229.04744054 -234.9921875 213.03125 C-235.7342041 211.72039429 -235.7342041 211.72039429 -236.49121094 210.38305664 C-247.84630983 190.16809936 -257.123503 169.5569471 -261.7421875 146.71875 C-261.92837646 145.79827881 -262.11456543 144.87780762 -262.30639648 143.92944336 C-263.71038353 136.34891215 -264.09235074 128.981768 -264.0546875 121.28125 C-264.04904785 120.05986328 -264.0434082 118.83847656 -264.03759766 117.58007812 C-263.46918935 74.56113655 -245.57488091 36.04695863 -215.17480469 5.85107422 C-205.11243926 -3.91280843 -193.94823372 -11.4513647 -181.7421875 -18.28125 C-180.68 -18.88710938 -179.6178125 -19.49296875 -178.5234375 -20.1171875 C-121.64714872 -50.62607056 -48.94957247 -40.72158166 0 0 Z " fill="#FEFEFE" transform="translate(615.7421875,308.28125)"/>
<path d="M0 0 C5.3170416 3.95807706 10.08096688 8.43397793 14.796875 13.08203125 C15.45558594 13.72785156 16.11429688 14.37367188 16.79296875 15.0390625 C34.37691417 33.67885683 38.67819844 57.23752859 37.98046875 81.90576172 C37.59067677 88.64937027 36.03446872 94.71293279 33.796875 101.08203125 C33.42304687 102.15324219 33.04921875 103.22445312 32.6640625 104.328125 C28.1937376 115.94800925 21.3387434 125.14000325 12.796875 134.08203125 C12.25675781 134.69691406 11.71664062 135.31179688 11.16015625 135.9453125 C2.04057102 145.93780513 -10.59736547 151.83014263 -23.203125 156.08203125 C-24.17894531 156.42234375 -25.15476562 156.76265625 -26.16015625 157.11328125 C-47.65180213 163.32773307 -71.74819153 159.38346344 -91.203125 149.08203125 C-112.35792163 136.80169579 -126.85370482 117.79788668 -133.234375 94.28125 C-138.15409608 71.61864593 -135.68325094 47.4156998 -123.02734375 27.5703125 C-119.16284153 21.76456054 -115.0187289 16.13254266 -110.203125 11.08203125 C-109.543125 11.08203125 -108.883125 11.08203125 -108.203125 11.08203125 C-108.203125 10.42203125 -108.203125 9.76203125 -108.203125 9.08203125 C-78.67315114 -18.12195151 -33.60711322 -22.29142336 0 0 Z " fill="#006FE4" transform="translate(560.203125,354.91796875)"/>
<path d="M0 0 C1.88671875 1.9140625 1.88671875 1.9140625 3.6875 4.625 C4.36425781 5.61886719 5.04101562 6.61273437 5.73828125 7.63671875 C6.09873535 8.17731934 6.45918945 8.71791992 6.83056641 9.27490234 C8.07582852 11.11185894 9.36449294 12.91095469 10.66796875 14.70703125 C11.11760986 15.32690918 11.56725098 15.94678711 12.03051758 16.58544922 C12.91176711 17.79938765 13.79311135 19.01325732 14.67456055 20.22705078 C16.71195937 23.067948 18.48801304 25.85236442 20 29 C19.42145264 29.17539307 18.84290527 29.35078613 18.24682617 29.53149414 C0.4635263 34.00333194 0.4635263 34.00333194 -13.24609375 45.02734375 C-14.34369785 47.89931303 -14.36675519 49.94370676 -14 53 C-8.72038305 62.61193421 3.29956228 66.20111789 13.32641602 69.28833008 C33.38437114 74.96179126 54.20862096 76.2346447 74.9375 76.25 C76.17631424 76.25101212 76.17631424 76.25101212 77.44015503 76.25204468 C124.22744639 76.38926314 124.22744639 76.38926314 166 58 C168.762141 54.83364324 169.97474704 53.212142 170.0625 49 C167.71188373 42.36296583 164.31342832 39.91007429 158.125 36.9375 C150.90999811 33.80521396 143.49993122 31.34437684 136 29 C138.86442019 23.62921213 142.20533481 18.7906586 145.87890625 13.9375 C148.05720854 11.02570135 148.05720854 11.02570135 149.83984375 7.8125 C151.68157589 4.75981925 153.33247397 2.36857914 156 0 C159.76940258 -0.90723199 163.01847258 -0.23246119 166.77441406 0.56152344 C169.35835313 1.07060138 171.94536813 1.43232989 174.5546875 1.7890625 C203.51919669 5.85733181 241.29482499 12.10063496 262 35 C266.36508232 40.8133579 268.5896299 45.57066329 268 53 C265.71920378 63.29867214 258.20727853 70.76735124 249.5546875 76.296875 C246.11574601 78.36461103 242.58535592 80.19906085 239 82 C237.66195312 82.68835938 237.66195312 82.68835938 236.296875 83.390625 C202.2923894 99.87132661 160.3573804 104.84857569 123 107 C121.05154175 107.12592529 121.05154175 107.12592529 119.0637207 107.25439453 C105.27632485 108.10360269 91.49823131 108.24298743 77.6875 108.25 C75.87977112 108.25101212 75.87977112 108.25101212 74.03552246 108.25204468 C27.15773397 108.21063594 -21.43932772 104.47807394 -66 89 C-67.16789062 88.60039063 -68.33578125 88.20078125 -69.5390625 87.7890625 C-85.31108641 82.07122415 -103.14538713 73.6792463 -111 58 C-112.97543945 51.66624727 -112.7402172 45.90313928 -109.9375 39.875 C-100.12724062 22.26544854 -77.9840593 15.1216867 -59.6875 9.8125 C-41.16921421 4.65365422 -19.31641079 -1.2735645 0 0 Z " fill="#FDFEFE" transform="translate(434,648)"/>
<path d="M0 0 C1.1405136 4.56205439 0.71502296 5.36628863 -1.25 9.4375 C-1.68828125 10.36433594 -2.1265625 11.29117187 -2.578125 12.24609375 C-3.95032715 14.90379296 -5.42970727 17.45520207 -7 20 C-7.66 19.67 -8.32 19.34 -9 19 C-6.03 12.73 -3.06 6.46 0 0 Z " fill="#1065E2" transform="translate(657,491)"/>
<path d="M0 0 C0.66 0 1.32 0 2 0 C2.0825 0.78375 2.165 1.5675 2.25 2.375 C2.70626328 5.07713392 2.70626328 5.07713392 4.6875 6.0625 C5.450625 6.371875 6.21375 6.68125 7 7 C9.01182457 8.31542376 11.01399663 9.6459068 13 11 C12.67 11.66 12.34 12.32 12 13 C2.05551651 6.93323963 2.05551651 6.93323963 0 2 C0 1.34 0 0.68 0 0 Z " fill="#1269E3" transform="translate(419,699)"/>
<path d="M0 0 C3.63061667 1.53218685 5.9863773 3.7183144 8.75 6.5 C9.94882812 7.69109375 9.94882812 7.69109375 11.171875 8.90625 C13 11 13 11 13 13 C9.57398307 11.85799436 8.75478349 10.79691945 6.5 8.0625 C4.37123979 5.49024808 2.81608855 3.87739237 0 2 C0 1.34 0 0.68 0 0 Z " fill="#055EE1" transform="translate(566,361)"/>
<path d="M0 0 C0.66 0 1.32 0 2 0 C2 0.66 2 1.32 2 2 C2.5775 2.226875 3.155 2.45375 3.75 2.6875 C6.5663661 4.33038023 8.08077114 6.39533227 10 9 C7 9 7 9 5.17578125 7.28515625 C4.56089844 6.55167969 3.94601562 5.81820312 3.3125 5.0625 C2.68988281 4.33160156 2.06726563 3.60070312 1.42578125 2.84765625 C0 1 0 1 0 0 Z " fill="#1871E6" transform="translate(294,758)"/>
<path d="M0 0 C0.66 1.32 1.32 2.64 2 4 C0.68 5.32 -0.64 6.64 -2 8 C-2.99 7.67 -3.98 7.34 -5 7 C-3.35 4.69 -1.7 2.38 0 0 Z " fill="#0C6AE4" transform="translate(539,670)"/>
<path d="M0 0 C0.99 0 1.98 0 3 0 C1.63016497 3.16115776 1.0109362 3.9927092 -2 6 C-1.125 1.125 -1.125 1.125 0 0 Z " fill="#1170E5" transform="translate(450,366)"/>
</svg>
